<?xml version="1.0" encoding="UTF-8"?><svg id="Layer_2" xmlns="http://www.w3.org/2000/svg" viewBox="0 0 137.45 131.84"><g id="Layer_1-2"><path d="M0,7.72C2.34,1.69,8.6-1.2,14.14,.71c8.92,3.06,15.46,9.34,21.77,15.94,3.71,3.88,7.44,7.72,11.11,11.64,1.74,1.86,3.73,2.03,5.95,1.21,6.18-2.28,12.52-3.91,19.13-2.97,4.12,.58,8.18,1.75,12.19,2.89,2.83,.8,4.92,.13,6.89-1.97,4.94-5.27,9.96-10.49,15.01-15.65,4.72-4.82,10.34-8.27,16.47-11.12,4.95-2.3,12.93,1.65,14.78,7.21-.96-.62-1.6-.94-2.13-1.39-5.35-4.51-10.91-3.12-14.99,1.51-1.89,2.14-3.37,4.89-4.23,7.62-1.69,5.32-4.62,9.98-7.04,14.92-1.87,3.82-3.45,7.79-5.1,11.72-.52,1.24-1.13,1.55-2.51,1.18-3.47-.93-6.65-.34-9.04,2.61-.38,.46-.7,1.33-.52,1.82,.64,1.82,1.23,3.75,2.32,5.3,2.23,3.18,2.2,6.45,1.27,9.98-.45,1.72-.93,3.52-.86,5.27,.12,3.24-1.25,5.22-3.98,6.86-3.19,1.92-4.5,5.27-5.16,8.77-.81,4.32-2.5,8.26-4.36,12.22-1.35,2.89-1.92,6.18-2.56,9.35-1.2,5.91-2.2,11.87-3.28,17.81-.08,.46-.3,.92-.28,1.37,.21,4.27-1.94,6.3-6.05,6.99-2.54,.42-5.87-1.47-6.39-4.07-1.06-5.24-2.27-10.46-3.26-15.71-.36-1.9,0-3.95-.48-5.8-1.07-4.11-2.48-8.13-3.73-12.19-1-3.25-2.3-6.45-2.88-9.77-.61-3.47-2.11-6.4-4.93-8.12-3.5-2.13-4.44-5.24-4.93-8.83-.23-1.69-.61-3.37-.83-5.06-.42-3.27-.61-6.47,1.75-9.27,.72-.86,1.26-2,1.52-3.1,.93-3.99-1.26-6.66-5.42-6.77-.78-.02-1.63-.14-2.32,.13-2.73,1.09-3.45-.39-4.33-2.65-1.71-4.39-3.85-8.62-5.81-12.92-1.98-4.36-4.01-8.7-5.92-13.09-1.58-3.62-3.56-6.88-7-9.07-3.65-2.33-7.28-2.31-10.87,.16-.89,.61-1.8,1.19-3.13,2.06Zm73.85,63.96c-.12,2.08,.85,4.6,3.29,5.79,5.25,2.57,12.29-1.17,11.97-7.27-.09-1.63,.62-3.29,.72-4.94,.16-2.66,.57-5.42,.04-7.96-.68-3.26-4.29-4.11-6.74-1.84-1.87,1.73-3.77,3.51-5.31,5.53-2.22,2.91-3.93,6.14-3.98,10.69Zm-10.42-1.63c-.56-6.18-5.04-11.01-10.18-15.25-2.14-1.76-4.43-.89-5.36,1.82-.66,1.9-.86,4.07-.76,6.1,.14,2.9,.87,5.76,1.1,8.66,.3,3.72,4.15,7.1,8.25,7,4.27-.1,7.06-3.04,6.95-8.33Z"/></g></svg>