<?xml version="1.0" encoding="UTF-8"?><svg id="Layer_2" xmlns="http://www.w3.org/2000/svg" viewBox="0 0 97.52 130.8"><g id="Layer_1-2"><g><path d="M59.06,1.04c-2.05,8.98-3.89,17.75-6.17,26.39-.38,1.42-2.55,2.93-4.17,3.36-11.06,2.92-22.19,5.57-33.39,9.22,6.51,1.67,13.03,3.35,19.85,5.1-1.08,4.9-1.83,9.49-3.22,13.87-.48,1.52-2.34,3.14-3.92,3.68-4.18,1.42-8.54,2.27-12.8,4.17,4,1.02,7.97,2.25,12.02,3.01,3.06,.57,4.57,1.97,5.11,5.1,.73,4.2,1.95,8.32,3.82,12.42,1.04-4.35,1.87-8.76,3.23-13.01,.51-1.59,2.01-3.53,3.5-4.03,4.2-1.43,8.63-2.2,13.49-3.35,1.71,7,3.36,13.71,5,20.42,.3,0,.59,.02,.89,.03,2.36-10.15,5.15-20.22,6.91-30.47,1.03-6.03,3.61-8.85,9.6-9.73,6.05-.89,11.96-2.73,18.14-4.21,2.93,28.37-4.84,52.76-25.28,72.42-5.93,5.7-13.17,10.09-20.06,14.71-1.35,.9-4.24,.86-5.71,.02C16.76,113.45,.44,88.85,.09,54.69-.05,41.36-.03,28.03,.19,14.7c.03-1.73,1.29-4.39,2.69-5C20.09,2.13,38.14-1.05,56.93,.3c.48,.03,.93,.31,2.13,.73Z"/><path d="M97.35,36.33c-8.61-2.08-16.53-3.92-24.37-6-.99-.26-2.09-1.72-2.36-2.81-2.05-8.39-3.9-16.83-5.99-26,11.4,1.1,21.58,4.31,31.41,8.79,.67,.31,1.24,1.61,1.25,2.46,.1,7.62,.06,15.24,.06,23.57Z"/><path d="M36.29,45.35c5.25,1.28,9.6,2.23,13.87,3.47,1.06,.31,2.39,1.43,2.66,2.43,1.26,4.58,2.19,9.25,3.4,14.6-5.11-1.23-9.6-2.14-13.97-3.47-1.13-.34-2.37-1.83-2.71-3.04-1.21-4.28-2.05-8.67-3.24-13.99Z"/></g></g></svg>