<?xml version="1.0" encoding="UTF-8"?><svg id="Layer_2" xmlns="http://www.w3.org/2000/svg" viewBox="0 0 92.03 145.8"><g id="Layer_1-2"><g><path d="M21.01,127.84c-.84,4.66-1.85,9.29-2.45,13.98-.36,2.83-1.36,4.11-4.38,3.97-4.45-.2-8.92-.05-14.03-.05,.75-6.36,1.41-12.09,2.11-17.82,1.29-10.57,2.46-21.16,3.95-31.7,1.33-9.39,5.68-13.08,15.06-13.11,16.49-.05,32.97-.05,49.46,0,8.87,.03,13.32,3.16,14.61,11.78,2.49,16.57,4.3,33.25,6.5,50.76-5.87,0-10.96,.18-16.02-.17-.91-.06-2.11-2.24-2.41-3.61-1-4.65-1.66-9.38-3.39-14.08-.28,4.59-.7,9.18-.79,13.78-.05,2.84-.84,4.24-4,4.21-12.82-.12-25.65-.13-38.47,.01-3.18,.04-4.02-1.42-4.12-4.17-.16-4.57-.45-9.13-.69-13.69-.32-.03-.65-.06-.97-.09Z"/><path d="M71.39,51.54c-.05,14-11.47,25.23-25.59,25.15-14.02-.07-25.52-11.56-25.46-25.43,.06-13.83,11.73-25.24,25.74-25.15,14.15,.09,25.35,11.34,25.31,25.42Z"/><path d="M11.55,69.99C4.75,64.95,1.18,57.9,.28,49.58-2.49,24.18,15.83,2.7,42.19,.2c24.96-2.37,48.11,16.78,49.74,41.43,.74,11.11-2.55,20.86-11.42,28.48,8.11-22.3,3.75-40.49-17.73-52.13-14.11-7.64-31.44-4.56-43.18,6.23-12.23,11.25-14.87,27-8.07,45.78Z"/></g></g></svg>