<?xml version="1.0" encoding="UTF-8"?><svg id="Layer_2" xmlns="http://www.w3.org/2000/svg" viewBox="0 0 196.92 187.77"><g id="Layer_1-2"><path d="M0,158.16c.72-1.54,1.19-3.32,2.24-4.64,2.14-2.68,4.66-5.05,6.89-7.66,1.29-1.52,2.34-3.25,3.47-4.9,2.15-3.14,1.97-6.84,2.34-10.81,1.73,.74,3.46,1.08,4.66,2.07,1.94,1.61,3.36,.9,4.94-.33,2.26-1.76,3.69-3.95,2.94-6.89-.42-1.64-1.34-3.15-2.02-4.73-.22-.51-.29-1.09-.58-1.55-1.25-2-2.41-4.1-3.89-5.93-1.87-2.3-4.07-4.34-6.01-6.58-.52-.6-.86-1.53-.92-2.33-.34-4.28-.67-8.66,.95-12.7,.88-2.2,2.56-4.2,4.25-5.93,2.25-2.29,4.73-4.39,7.35-6.24,1.66-1.17,3.74-1.74,5.63-2.58,1.84-.81,3.65-1.67,5.52-2.39,1.63-.63,3.36-.99,4.96-1.67,2.08-.88,4.13-1.86,6.06-3.01,1.03-.62,1.3-4.74,.67-5.94-1.37-2.57-2.83-5.11-4.03-7.76-.57-1.26-.69-2.74-.96-4.13-.51-2.69-2.9-3-4.8-3.35-2.35-.43-4.83-.11-7.25-.16-2.22-.05-2.59-.73-1.51-2.65,.14-.25,.44-.55,.39-.74-.54-1.85-.9-3.81-1.78-5.49-.9-1.71-2.48-2.51-4.65-2.69-2.61-.22-5.16-1.18-7.69-1.98-.5-.16-1.09-1.07-1.09-1.63-.03-2.86,.02-5.73,.23-8.58,.19-2.56,1.31-5.24,.8-7.61-.78-3.57-.33-7.34-2.04-10.79-.82-1.63-.78-3.69-.88-5.66,1.63,2.46,4.05,4.26,4.7,7.41,.55,2.7,1.48,5.38,2.65,7.89,2.61,5.62,5.73,10.89,10.61,14.99,3.76,3.16,8.06,4.43,12.82,5,2.42,.29,4.73,1.43,7.08,2.23,1.38,.47,2.83,.86,4.07,1.59,2.42,1.44,5.07,2.75,6.95,4.74,2.38,2.52,4.14,5.64,6.08,8.55,1.02,1.53,1.7,3.3,2.83,4.73,1.1,1.39,2.6,2.31,4.59,2.32,3.09,0,6.23,.33,8.24-2.75,.43-.65,.9-1.42,.94-2.15,.13-2.14,.04-4.29,.04-6.44,.3-.07,.61-.13,.91-.2,.95,1.43,1.96,2.83,2.84,4.3,.98,1.63,2.29,2.44,4.25,2.36,2.86-.12,5.74,.12,8.58-.15,2.17-.21,4.36-.94,5.81-2.75,.92-1.15,1.49-2.57,2.22-3.86,.28,.04,.55,.07,.83,.11,0,1.44-.02,2.88,0,4.31,.06,3.02,1.99,4.77,4.64,6.02,2.08,.98,4.05,1.03,6.15,1.2,4.75,.38,8.22-2.71,9.74-6.89,1.75-4.78,4.98-8.85,9.16-11.61,2.01-1.32,4.31-2.63,6.87-3.48,4.64-1.54,9.53-1.7,14.05-3.28,3.36-1.18,6.48-3.06,8.96-5.84,2.06-2.3,3.19-5.3,5.78-7.23,.82-.62,1.14-1.98,1.55-3.05,.58-1.54,.99-3.14,1.54-4.69,1.09-3.12,2.06-6.3,3.4-9.31,.71-1.59,2.12-2.86,3.22-4.27,.21,.05,.41,.1,.62,.16-.03,.75,.05,1.54-.13,2.25-.3,1.19-.8,2.32-1.15,3.49-2.65,8.8-1.05,17.77-1.03,26.67,0,2.11-1.35,2.43-2.89,2.7-2.68,.47-5.41,.77-8.01,1.51-.98,.28-1.92,1.45-2.44,2.44-.53,1.02-.3,2.42-.78,3.48-.49,1.07-1.28,1.74-.15,3.03,.99,1.14,.29,2.22-1.33,2.28-1.91,.08-3.85-.19-5.72,.08-2,.29-4.04,.81-5.84,1.68-.92,.45-1.62,1.79-1.99,2.88-.72,2.13-1.14,4.36-1.69,6.58-2.84,.78-5.94,4.52-5.94,7.05,0,2.37,1.71,3.83,3.31,4.62,3.49,1.73,7.28,2.86,10.95,4.25,1.81,.69,3.79,1.13,5.36,2.18,3.27,2.2,6.44,4.59,9.39,7.19,1.87,1.65,3.48,3.69,4.82,5.8,.84,1.34,1.19,3.11,1.35,4.73,.23,2.33-.09,4.71,.13,7.03,.24,2.49-.94,4.55-2.58,5.7-2.78,1.94-4.4,4.73-6.21,7.3-1.66,2.36-2.54,5.29-3.68,8.01-.5,1.21-.97,2.49-1.12,3.77-.21,1.83,1.79,4.11,3.33,5.1,2.92,1.88,4.96,.34,7.13-1.27,.49-.36,1.14-.5,1.85-.8,.37,2.3,.99,4.56,1.03,6.82,.05,2.82,1.79,4.71,3.3,6.6,2.86,3.6,6.08,6.91,9.11,10.37,.3,.35,.37,.9,.52,1.37,.33,1.02,.65,2.04,1.13,3.55-3.13,.5-6.42,1.19-9.75,1.5-2.39,.22-4.92,.29-7.23-.24-2.73-.63-5.36-1.84-7.91-3.05-2.05-.98-4.05-2.18-5.83-3.59-1.96-1.56-3.89-3.29-5.39-5.28-2.39-3.17-4.89-6.42-6.45-10.02-1.23-2.84-2.13-6.07-1.74-9.43,.27-2.39-.19-4.89,.22-7.24,.36-2.1,1.4-4.11,2.25-6.1,.88-2.05,1.85-4.07,2.87-6.05,.7-1.37,1.51-2.69,2.36-3.97,1-1.5-.02-5.08-1.61-6.52-2.25-2.03-4.84-3.48-7.65-4.36-1.28-.4-2.93,.08-4.34,.46-1.57,.42-3.05,1.18-4.56,1.79-3.82,1.56-6.84,4.19-8.93,7.65-1.04,1.72-.95,4.09-1.83,5.95-.71,1.5-1.87,3.33-3.26,3.84-2.87,1.05-4.97,3.12-7.5,4.58-.87,.5-1.4,4.99-.95,6.02,.17,.38,.23,.84,.23,1.27,.05,4.04,.23,8.08,.03,12.11-.09,1.66-.95,3.31-1.6,4.91-.68,1.67-1.56,3.26-2.33,4.89-.84,1.79-1.95,3.51-2.41,5.4-.62,2.5-.7,5.14-1.08,7.7-.42,2.89-.77,5.8-1.42,8.63-.69,2.97-1.33,6.07-2.73,8.72-1,1.89-.69,3.73-1.22,5.51-.29,.98-1.23,2.23-2.12,2.48-2.81,.77-5.6,2.88-8.71,.42-.8-.63-2.48,.1-3.02-1.48-.21-.63-.81-1.22-.81-1.82,.02-3.69-1.17-7.01-2.51-10.39-.93-2.34-1.14-4.97-1.57-7.49-.55-3.18-.77-6.44-1.55-9.56-.89-3.52-2.12-6.98-3.44-10.37-.94-2.43-2.27-4.71-3.4-7.07-.21-.44-.4-.96-.36-1.42,.25-3.21-.43-6.4,.89-9.67,1.12-2.79,.52-6.14-1.2-8.72-.92-1.37-2.75-2.37-4.38-2.98-3.91-1.46-6.16-4.4-8.32-7.74-2.34-3.62-4.83-7.37-8.72-9.44-2.52-1.34-5.09-2.66-7.9-3.61-4.27-1.44-6.98,.31-9.85,2.65-.93,.76-1.81,1.58-2.68,2.4-1.87,1.77-1.42,3.48-.17,5.5,1.28,2.06,2.1,4.4,3.11,6.62,1.19,2.6,2.4,5.19,3.55,7.81,.23,.52,.28,1.14,.28,1.71,.03,3.23,.17,6.47,0,9.69-.19,3.5-1.38,6.72-3.49,9.58-.64,.88-1.1,1.91-1.55,2.91-2.06,4.53-5.67,7.91-9.57,10.47-2.88,1.89-6,3.72-9.58,4.82-5.45,1.68-10.76,.97-16.13,.81-1.27-.04-2.51-1.04-3.9-1.66Zm82.53-52.1c2.03-.62,4.03-1.22,6.03-1.85,1.95-.62,2.43-2.42,3.01-4.04,.35-.99,.91-2.45,.47-3.07-1.14-1.63-2.55-3.67-4.27-4.19-3.2-.97-3.99-3.7-5.38-5.9-2.16-3.41-3.71-7.06-7.88-8.83-4.1-1.74-7.77,.09-7.82,4.56-.03,2.31,.21,4.49,.99,6.86,1.26,3.83,2.87,7.47,4.4,11.16,.51,1.24,1.58,2.65,2.75,3.14,2.36,1,4.96,1.43,7.7,2.16Zm35.41-.59c2.46,.39,4.79-.43,7.03-1.97,3.78-2.6,4.81-6.81,6.45-10.62,.96-2.23,1.6-4.65,2.01-7.05,.64-3.77-.9-6.33-4.45-8.17-2.41-1.25-4.27,.4-5.11,1.19-2.54,2.41-4.44,5.52-6.45,8.45-1.21,1.77-1.88,3.95-3.97,5.02-1.03,.53-2.12,.97-3.07,1.61-2.88,1.95-3.13,6.38-.76,8.89,2.26,2.38,4.96,3.02,8.3,2.64Z"/></g></svg>