<?xml version="1.0" encoding="UTF-8"?><svg id="Layer_2" xmlns="http://www.w3.org/2000/svg" viewBox="0 0 178.16 140.18"><g id="Layer_1-2"><path d="M107.52,74.45c-2.31,2.52-1.86,5.55-1.57,8.55,.15,1.58,.23,3.18,.53,4.73,.94,4.85-2.09,8.53-3.65,12.64-.15,.39-.67,.66-.78,1.05-.87,3.19-1.85,6.36-2.47,9.6-.87,4.57-1.43,9.19-2.18,13.78-.48,2.95-1.3,5.85-1.56,8.82-.38,4.25-1.11,5.33-5.28,6.31-4.73,1.11-8.34-1.44-8.89-6.16-.29-2.44-.54-4.94-1.28-7.26-1.79-5.62-2.17-11.41-2.57-17.22-.08-1.18-.89-2.31-1.4-3.45-.14-.31-.56-.56-.57-.84-.12-4.39-2.96-7.71-4.36-11.57-.82-2.26-.36-5.04-.28-7.57,.06-1.75,.51-3.49,.68-5.25,.41-4.18-1.43-6.74-5.47-7.77-3.76-.96-5.33-3.22-5.21-6.94,.05-1.54-.52-3.1-.76-4.66-.4-2.67-.84-5.34-1.08-8.02-.06-.67,.58-1.4,.89-2.11,1.21-2.81,2.46-5.61,3.62-8.43,.63-1.52,.07-2.52-1.54-2.97-.67-.19-1.28-.7-1.95-.79-2.26-.33-3.97-1.25-4.44-4.17-1.46,1.14-2.67,1.97-3.73,2.96-1.52,1.42-2.64,1.25-4.59,.26-6.05-3.05-12-7.1-19.33-5.61-2.59,.53-5,1.9-8,3.08,1.33,2.55,2.2,4.65,3.45,6.5,1.22,1.81,3.25,3.16,4.18,5.07,2.59,5.33,4.92,10.8,7.12,16.31,1.63,4.08,2.87,8.31,4.33,12.45,2.94,8.31,.22,17.58-10.34,19.67-5.57,1.1-11.43,1.27-17.11,.96-2.94-.16-5.97-1.95-8.61-3.56-2.55-1.55-3.04-4.35-2.56-7.07,1.52,1.63,2.78,3.74,4.65,4.82,6.22,3.62,14.33-.7,15.15-8.03,.25-2.21,.12-4.74-.73-6.74-4.82-11.34-7.98-23.37-14.34-34.11-1.86-3.14-2.9-6.88-3.98-10.54C.03,26.18-.54,21.37,.61,16.52c1.06-4.48,3.38-8.45,7.79-10.75,1.56-.81,2.98-1.89,4.41-2.92C16.37,.28,20.29-.34,24.6,.19c4.68,.58,9.01,2.13,13.3,3.95,.71,.3,1.59,.25,2.26,.6,1.5,.78,2.91,1.75,4.39,2.57,.69,.39,1.46,.65,2.21,.93,.85,.31,1.72,.56,2.56,.88,.32,.12,.62,.58,.86,.53,3.77-.69,5.87,2.19,8.54,3.87,.75,.47,1.89,.31,2.7,.73,2.3,1.17,4.56,2.43,6.74,3.81,.42,.26,.47,1.24,.53,1.9,.19,1.92,.3,3.84,.47,6.26,6.61-2.98,12.63-6.54,19.9-6.41,7.26,.13,13.28,3.75,20.13,6.65,0-1.97-.24-3.57,.07-5.05,.28-1.34,.84-3.03,1.86-3.72,2.08-1.41,4.61-2.14,6.84-3.36,2.17-1.18,4.18-2.67,6.32-3.91,.68-.4,1.57-.44,2.35-.69,.71-.23,1.43-.46,2.07-.81,.44-.25,.87-1.1,1.12-1.03,3.76,1.09,5.36-3.14,8.83-3.41,3.1-.24,5.97-2.63,9.11-3.31,6.29-1.36,12.65-2.43,18.38,2.24,3.22,2.63,7.17,4.22,9.32,8.28,3.19,6.01,3.41,12,1.36,18.3-.43,1.31-.44,2.76-.92,4.05-1.03,2.74-1.92,5.6-3.43,8.07-6.53,10.64-9.62,22.71-14.37,34.09-2.32,5.55-.39,10.7,4.27,14.03,4.87,3.48,11.42,1.77,14.01-3.67,.18-.37,.34-.75,.6-1.33,.82,3.81,.29,6.17-2.63,7.96-2.49,1.53-5.4,3.08-8.21,3.25-5.25,.32-10.6,.02-15.82-.69-10.28-1.4-14.9-9.74-11.91-19.46,2.17-7.06,4.71-14.01,7.36-20.91,1.15-2.99,2.33-6.49,4.63-8.39,3.93-3.25,4.72-7.88,7.42-11.82-7.06-3.57-13.69-4.4-20.48-.45-2.64,1.53-5.42,2.85-8.24,4.04-.66,.28-1.88-.13-2.55-.63-1.47-1.1-2.74-2.45-4.58-4.15-.43,4.49-4.05,4.53-6.75,5.79-1.38,.64-2.22,1.27-1.54,2.97,.81,2.03,1.03,4.46,2.28,6.13,2.97,3.96,2.37,7.96,1.18,12.19-.42,1.51-.75,3.11-.77,4.67-.05,4.33-1.37,6.12-5.63,7.2-.77,.19-1.53,.44-2.29,.66,.7-2.68,1.4-5.35,2.08-8.03,.15-.59,.04-1.34,.37-1.77,2.21-2.91,2.33-6.32,2.58-9.75,.16-2.19-.49-3.83-2.55-4.71-2.09-.9-3.97-.27-5.08,1.54-2.35,3.8-4.74,7.63-6.55,11.7-1.07,2.4-1.42,5.27-1.45,7.94-.05,3.84,3.54,6.11,7.2,4.93,.83-.27,1.62-.65,2.43-.98Zm-42.5-17.58c-.09,.02-.19,.04-.28,.06,1.34,5.02,2.39,10.14,4.12,15.02,1.09,3.07,5.03,4.47,7.74,3.54,2.84-.97,4.16-3.67,3.65-7.36-.92-6.7-4.46-12.18-8.25-17.51-1.19-1.66-2.99-2.14-4.95-1.28-2.06,.9-2.81,2.56-2.52,4.73,.12,.94,.33,1.87,.49,2.81Z"/></g></svg>