<?xml version="1.0" encoding="UTF-8"?><svg id="Layer_2" xmlns="http://www.w3.org/2000/svg" viewBox="0 0 92.34 154.83"><g id="Layer_1-2"><path d="M43.15,88.2c.87,5.63,1.6,10.36,2.32,15.08l.98,.14c.74-4.76,1.49-9.52,2.42-15.48,2.17,1.8,3.95,3.24,5.69,4.73,1.55,1.33,3.06,2.71,4.41,3.92,1.88-6.64,3.39-12.36,5.15-18,.9-2.89,3.12-3.78,6.22-3.72,7.06,.14,10.09-2.23,11.18-9.28,1-6.51,1.49-13.12,1.7-19.71,.11-3.59-2.66-4.87-5.84-3.97-13.46,3.81-20.59,14.71-15.89,26.75,.46,1.17,.21,2.92-.34,4.12-1.57,3.43-3.45,6.71-5.32,10.25-4.49-.43-5.73-3.07-5.54-7.96,.9-23.16,1.4-46.33,2.02-69.5,.05-1.78,0-3.57,0-5.33,17.68-.56,28.2,4.14,32.63,18.91,1.81,6.02,5.05,11.6,7.19,17.55,.63,1.74-.24,4.04-.52,6.07-.52,3.82-1.11,7.63-1.69,11.44-.54,3.58-1.03,7.18-1.67,10.74-1.4,7.8-1.58,7.64-6.91,12.99-6.73,6.76-9.57,15.45-11.42,24.56-.32,1.56-.71,3.49-1.78,4.45-5.56,5-6.84,11.5-6.87,18.45-.03,6.65-1.48,12.69-6.29,17.65-.66,.68-.62,2.09-.77,3.19-.33,2.42-.57,4.86-.91,7.89-2.39-1.59-4.15-2.75-6.15-4.07-1.97,1.5-3.92,3-6.29,4.8-.43-1.38-.8-2.53-1.14-3.69-1.7-5.68-3.45-11.34-5.06-17.04-.62-2.2-1.27-4.48-1.35-6.75-.22-6.9-2.76-12.71-6.8-18.27-2.16-2.97-3.06-6.92-4.25-10.52-1.05-3.15-1.8-6.41-2.54-9.66-1.26-5.6-4.52-9.61-9.62-12.05-2.94-1.4-4.21-3.19-3.66-6.69,.37-2.35-.65-4.89-.87-7.36-.25-2.75-.47-5.53-.38-8.28,.15-4.55-.41-8.62-4.42-11.66-.76-.58-.97-2.8-.53-3.9C3.89,29.85,7.34,20.62,11.7,11.84,15.89,3.41,27.74-1.06,41.04,.22c0,20.84-.05,41.8,.04,62.75,.02,4.48,.35,8.98,.96,13.42,.57,4.21-.39,6.81-4.56,6.91-1.86-3.61-3.76-6.9-5.26-10.36-.67-1.55-.93-3.49-.71-5.17,1.58-12.12-6.02-23.22-17.77-25.76-3.45-.75-5.54,.6-6.16,4.01-.33,1.79-.58,3.7-.33,5.48,.85,6.21,1.36,12.56,3.21,18.48,.79,2.52,4.35,5.37,7.05,5.85,8.26,1.48,10.88,3.62,12.44,12.28,.43,2.38,1.45,4.66,2.19,6.98,2.46-1.38,4.94-2.73,7.36-4.16,.97-.57,1.82-1.34,3.66-2.73Z"/></g></svg>