<?xml version="1.0" encoding="UTF-8"?><svg id="Layer_2" xmlns="http://www.w3.org/2000/svg" viewBox="0 0 122.15 134.48"><g id="Layer_1-2"><g><path d="M101.76,134.34c-5.39,0-9.72,.24-13.99-.15-1.21-.11-3-1.91-3.24-3.18-1.55-8-2.73-16.08-4.07-24.12-.26-1.58-.69-3.14-1.74-4.62-.46,8.9-1.11,17.79-1.3,26.69-.08,3.92-1.04,5.62-5.36,5.51-11.32-.27-22.66-.23-33.98-.01-3.71,.07-4.87-1.17-4.99-4.8-.28-8.95-.97-17.9-2.47-26.9-1.45,8.89-3.02,17.77-4.27,26.69-.5,3.58-1.74,5.34-5.66,5.01-3.76-.33-7.58-.07-12.06-.07,1.92-16.44,3.77-32.19,5.67-48.5,24.95,1.69,49.3,3.34,74.3,5.04-.46,5.27-.88,9.98-1.37,15.53,3.69-2.04,6.67-3.7,10.52-5.83,1.34,11.35,2.61,22.1,3.99,33.73Z"/><path d="M30.2,24.92C30.45,10.67,41.71-.26,55.87,0c13.62,.25,24.58,11.81,24.44,25.76-.14,14.07-11.6,25.39-25.53,25.23-13.87-.16-24.81-11.78-24.57-26.07Z"/><path d="M97.98,69.93c.6-3.17,1.09-5.71,1.7-8.94,7.55,5.4,14.55,10.42,22.47,16.08-8.95,5.47-17.32,10.59-26.34,16.1,.23-3.42,.4-5.96,.59-8.94C63.98,82.02,32.01,79.84,.03,77.66c-.01-.36-.02-.71-.03-1.07,32.55-2.21,65.11-4.42,97.98-6.65Z"/><path d="M17.1,68.18c.74-5.57,3.54-8.71,8.28-10.03,1.89-.53,3.94-.71,5.91-.72,15.96-.05,31.91-.08,47.87,0,4.47,.02,8.93,.46,12.19,5.72-25.1,1.7-49.51,3.35-74.25,5.02Z"/></g></g></svg>