<?xml version="1.0" encoding="UTF-8"?><svg id="Layer_2" xmlns="http://www.w3.org/2000/svg" viewBox="0 0 100.23 130.94"><g id="Layer_1-2"><path d="M.07,38.1c0-7.67,.14-15.34-.07-23-.08-3.12,.89-4.77,3.87-5.95,31.07-12.26,62.06-12.29,92.97,.45,1.36,.56,3.15,2.39,3.15,3.61-.08,17.99,1.09,36.16-1.07,53.92-3.56,29.31-21.1,49.64-46.64,63.4-1.26,.68-3.63,.46-4.96-.29C17.71,113.72,.54,89.36,.08,54.61c-.07-5.5-.01-11-.01-16.5Zm50.43,22.31c-.13,.99-.38,1.97-.39,2.96-.02,17.48-.02,34.97,0,52.45,0,.89,.27,1.78,.43,2.77,19.74-8.43,39.64-38.82,37.51-57.59-2.03,0-4.15,.02-6.26,0-10.47-.14-20.93-.3-31.4-.45V10.97c-13.48,.02-25.49,2.18-37.12,6.45-1.03,.38-2.2,2.12-2.22,3.25-.13,12.32-.11,24.64,.1,36.95,.02,1.14,1.63,3.23,2.51,3.24,12.28,.02,24.57-.25,36.83-.43Z"/></g></svg>